<?xml version="1.0" encoding="UTF-8" standalone="no"?>
<!-- Created with Inkscape (http://www.inkscape.org/) -->

<svg
   width="187.96292mm"
   height="144.3797mm"
   viewBox="0 0 187.96293 144.37969"
   version="1.1"
   id="svg1"
   xml:space="preserve"
   inkscape:version="1.3.2 (091e20e, 2023-11-25, custom)"
   sodipodi:docname="Logo.svg"
   xmlns:inkscape="http://www.inkscape.org/namespaces/inkscape"
   xmlns:sodipodi="http://sodipodi.sourceforge.net/DTD/sodipodi-0.dtd"
   xmlns="http://www.w3.org/2000/svg"
   xmlns:svg="http://www.w3.org/2000/svg"><sodipodi:namedview
     id="namedview1"
     pagecolor="#ffffff"
     bordercolor="#000000"
     borderopacity="0.25"
     inkscape:showpageshadow="2"
     inkscape:pageopacity="0.0"
     inkscape:pagecheckerboard="0"
     inkscape:deskcolor="#d1d1d1"
     inkscape:document-units="mm"
     showguides="true"
     inkscape:zoom="0.72426347"
     inkscape:cx="360.3661"
     inkscape:cy="296.16294"
     inkscape:window-width="1920"
     inkscape:window-height="1009"
     inkscape:window-x="-8"
     inkscape:window-y="-8"
     inkscape:window-maximized="1"
     inkscape:current-layer="layer2"
     inkscape:export-bgcolor="#ffffff00"><sodipodi:guide
       position="205.06448,107.55815"
       orientation="0,-1"
       id="guide1"
       inkscape:locked="false" /><sodipodi:guide
       position="132.37995,47.596134"
       orientation="0,-1"
       id="guide2"
       inkscape:locked="false" /><sodipodi:guide
       position="148.44086,100.09204"
       orientation="1,0"
       id="guide3"
       inkscape:locked="false" /><sodipodi:guide
       position="185.54302,70.296156"
       orientation="0,-1"
       id="guide4"
       inkscape:locked="false" /><sodipodi:guide
       position="126.3741,86.827847"
       orientation="0,-1"
       id="guide5"
       inkscape:locked="false" /><sodipodi:guide
       position="137.68695,58.332126"
       orientation="0,-1"
       id="guide6"
       inkscape:locked="false" /><sodipodi:guide
       position="130.99714,62.944216"
       orientation="0,-1"
       id="guide7"
       inkscape:locked="false" /><sodipodi:guide
       position="152.00266,51.665154"
       orientation="0,-1"
       id="guide8"
       inkscape:locked="false" /><sodipodi:guide
       position="120.52971,61.254586"
       orientation="1,0"
       id="guide9"
       inkscape:locked="false" /><sodipodi:guide
       position="148.02418,99.663959"
       orientation="0,-1"
       id="guide10"
       inkscape:locked="false" /><sodipodi:guide
       position="147.31382,95.142378"
       orientation="1,0"
       id="guide12"
       inkscape:locked="false" /><sodipodi:guide
       position="126.81887,96.119268"
       orientation="0,-1"
       id="guide13"
       inkscape:locked="false" /><sodipodi:guide
       position="118.53081,94.521018"
       orientation="0,-1"
       id="guide14"
       inkscape:locked="false" /><sodipodi:guide
       position="150.39746,78.141977"
       orientation="1,0"
       id="guide15"
       inkscape:locked="false" /><sodipodi:guide
       position="158.40525,73.556876"
       orientation="1,0"
       id="guide16"
       inkscape:locked="false" /><sodipodi:guide
       position="111.17887,96.758558"
       orientation="1,0"
       id="guide17"
       inkscape:locked="false" /><inkscape:page
       x="0"
       y="0"
       width="187.96294"
       height="144.37968"
       id="page1"
       margin="64.062309 9.8634691 89.89389 0"
       bleed="0"
       inkscape:export-filename="..\Nuevo Security Jacket\assets\img\Logo sin fondo.png"
       inkscape:export-xdpi="32.868984"
       inkscape:export-ydpi="32.868984" /></sodipodi:namedview><defs
     id="defs1" /><g
     inkscape:groupmode="layer"
     id="layer2"
     inkscape:label="Capa 2"
     transform="translate(-11.566527,-63.759672)"><path
       style="opacity:1;fill:#0000ff;fill-opacity:1;stroke-width:0.998587"
       d="m 108.10559,123.82447 7.4e-4,-0.25742 0.003,-1.13814 7.2e-4,-0.23427 m 0.0787,-11.95465 -1.44578,-3.18968 -21.695535,-0.0144 0.0198,-1.60203 23.078105,0.009 -0.0155,-3.58972 -1.40327,-0.0123 -0.61381,-0.39067 -0.48798,-0.40749 -0.41124,-0.47992 -0.3137,-0.608466 -0.22115,-0.5359 -0.25175,-0.67695 -0.19269,-0.59665 -0.12912,-0.55733 -0.13499,-0.5602 -0.10963,-0.57364 -0.0576,-0.49536 -0.10919,-0.58221 -0.0287,-0.46039 0.0122,-0.41671 0.0352,-0.46366 -26.984755,-0.0161 -2.05179,1.54531 -2.16024,1.77512 -0.0723,14.015366 2.64908,1.63124 2.85424,1.74153 11.37284,-0.014 1.07031,1.24202 0.82396,1.1369 0.0153,19.38052 -1.18527,0.99759 -1.21491,1.14249 -13.91103,0.005 -1.34055,1.1794 -1.13987,1.05983 -0.0286,2.5059 0.01,6.43216 1.43615,4.19798 31.462385,-0.0264 1.39368,-2.3977 1.31548,-1.91294"
       id="path3"
       sodipodi:nodetypes="ccccccccccccccccccccccccccccccccccccccccccccccc" /></g><g
     inkscape:label="Capa 1"
     inkscape:groupmode="layer"
     id="layer1"
     transform="translate(-11.566527,-63.759672)"><path
       style="opacity:1;fill:#000000;fill-opacity:1;stroke-width:0.298087"
       d="m 145.37993,111.56998 -3.48545,3.16468 -15.11324,-0.10456 0.0141,33.22592 -0.002,0.78319 6.2e-4,1.37508 -2.66745,3.90412 -24.189405,-0.0222 -0.47277,-0.70277 -0.25831,-1.21139 v -1.27516 -1.59395 -5.87813 l 0.0607,-0.19801 0.0682,-0.0919 0.11964,-0.11109 1.992085,-2.31947 0.26611,-0.30984 0.25381,-0.29552 0.27525,-0.32048 0.48039,-0.37669 0.59403,-0.5901 6.37731,0.007 0.006,-36.72473 2.06222,-0.0378 0.8148,-0.40441 0.52112,-0.41297 0.45656,-0.35736 0.38413,-0.33821 0.346,-0.409776 0.32555,-0.48644 0.25782,-0.50111 0.21467,-0.56393 0.19819,-0.58178 0.15543,-0.63247 0.11037,-0.57189 0.0413,-0.49314 0.0406,-0.55173 -0.0366,-0.54896 -0.094,-0.48412 -0.0826,-0.52827 25.12822,-0.021 4.83663,3.65119"
       id="path1"
       sodipodi:nodetypes="ccccccccccccccccccccccccccccccccccccccccccc" /></g><ellipse
     style="opacity:1;fill:#ffffff;fill-opacity:1;stroke-width:0.311388"
     id="path16"
     cx="74.344116"
     cy="42.579918"
     rx="2.3224816"
     ry="2.3698792" /><text
     xml:space="preserve"
     style="font-style:normal;font-variant:normal;font-weight:normal;font-stretch:normal;font-size:17.2582px;line-height:1.8;font-family:'High Tower Text';-inkscape-font-specification:'High Tower Text';opacity:1;fill:#0000ff;fill-opacity:1;stroke-width:0.101919"
     x="16.753763"
     y="109.57014"
     id="text16"><tspan
       sodipodi:role="line"
       id="tspan16"
       style="fill:#0000ff;fill-opacity:1;stroke-width:0.101919"
       x="16.753763"
       y="109.57014">SECURITY <tspan
   style="fill:#000000"
   id="tspan17">JACKET</tspan></tspan></text></svg>
